<svg width="40" height="40" viewBox="0 0 40 40" fill="none" xmlns="http://www.w3.org/2000/svg">
<rect width="40" height="40" rx="8" fill="#95E4E9"/>
<path fill-rule="evenodd" clip-rule="evenodd" d="M24.1254 8.47736C21.4119 7.84088 18.5881 7.84088 15.8747 8.47736C11.9561 9.39652 8.89652 12.4561 7.97736 16.3746C7.34088 19.0881 7.34088 21.9119 7.97736 24.6254C8.89652 28.5439 11.9561 31.6035 15.8747 32.5226C18.5881 33.1591 21.4119 33.1591 24.1253 32.5226C28.0439 31.6035 31.1035 28.5439 32.0226 24.6253C32.6591 21.9119 32.6591 19.0881 32.0226 16.3747C31.1035 12.4561 28.0439 9.39652 24.1254 8.47736ZM20 15.9794C18.6048 15.9794 17.4738 17.1105 17.4738 18.5056C17.4738 19.381 17.9184 20.1529 18.5978 20.6073C18.8946 20.8059 19.0233 21.1774 18.913 21.517L18.0005 24.3243C17.8888 24.6679 18.145 25.0205 18.5063 25.0205H21.4937C21.8551 25.0205 22.1112 24.6679 21.9995 24.3243L21.087 21.517C20.9767 21.1774 21.1054 20.8059 21.4022 20.6073C22.0816 20.1529 22.5262 19.381 22.5262 18.5056C22.5262 17.1105 21.3952 15.9794 20 15.9794ZM15.8784 18.5056C15.8784 16.2293 17.7237 14.384 20 14.384C22.2763 14.384 24.1217 16.2293 24.1217 18.5056C24.1217 19.7132 23.6019 20.7991 22.7761 21.5521L23.5168 23.8311C23.9636 25.2056 22.939 26.616 21.4937 26.616H18.5063C17.061 26.616 16.0364 25.2056 16.4832 23.8311L17.2239 21.5521C16.3981 20.7991 15.8784 19.7132 15.8784 18.5056Z" fill="white"/>
</svg>
